<svg xmlns="http://www.w3.org/2000/svg" width="24" height="24" viewBox="0 0 24 24"><path fill-rule="evenodd" d="M4,2.99999 L20,2.99999 C21.104,2.99999 22,3.89799 22,4.99999 L22,7.99999 C22,8.55199 21.553,8.99999 21,8.99999 L21,19.00001 C21,20.10301 20.104,21.00001 19,21.00001 L5,21.00001 C3.896,21.00001 3,20.10301 3,19.00001 L3,8.99999 C2.447,8.99999 2,8.55199 2,7.99999 L2,4.99999 C2,3.89799 2.896,2.99999 4,2.99999 Z M20,6.99999 L20,4.99999 L4,4.99999 L4,6.99999 L20,6.99999 Z M19,19.00001 L5,19.00001 L5,8.99999 L19,8.99999 L19,19.00001 Z M15,10.00001 L9,10.00001 L9,13.00001 L15,13.00001 L15,10.00001 Z"/></svg>