<svg xmlns="http://www.w3.org/2000/svg" width="24" height="24" viewBox="0 0 24 24"><path fill-rule="evenodd" d="M12,2 C7.527,2 3,3.374 3,6 L3,18 C3,20.626 7.527,22 12,22 C16.473,22 21,20.626 21,18 L21,6 C21,3.374 16.473,2 12,2 Z M12,4 C16.547,4 19,5.42 19,6 C19,6.58 16.547,8 12,8 C7.453,8 5,6.58 5,6 C5,5.42 7.453,4 12,4 Z M5,18 C5,18.58 7.453,20 12,20 C16.547,20 19,18.58 19,18 L19,16.6 C17.264,17.522 14.626,18 12,18 C9.374,18 6.736,17.523 5,16.6 L5,18 Z M12,16 C7.453,16 5,14.58 5,14 L5,12.6 C6.736,13.523 9.374,14 12,14 C14.626,14 17.264,13.522 19,12.6 L19,14 C19,14.58 16.547,16 12,16 Z M5,10 C5,10.58 7.453,12 12,12 C16.547,12 19,10.58 19,10 L19,8.6 C17.264,9.522 14.626,10 12,10 C9.374,10 6.736,9.522 5,8.6 L5,10 Z"/></svg>