<svg xmlns="http://www.w3.org/2000/svg" width="24" height="24" viewBox="0 0 24 24"><path fill-rule="evenodd" d="M10.925,1.25 L13.075,1.25 L13.075,3.48953675 C16.1220875,4.0026235 18.45,6.659013 18.45,9.85 L18.45,12.90085 C18.45,14.47035 19.450825,15.858175 20.9397,16.3559 L21.675,16.599925 L21.675,19.525 L2.325,19.525 L2.325,16.599925 L3.0603,16.3559 C4.549175,15.858175 5.55,14.47035 5.55,12.90085 L5.55,9.85 C5.55,6.659013 7.877891,4.0026235 10.925,3.48953675 L10.925,1.25 Z M12,22.75 C10.4133,22.75 9.0416,21.87925 8.296625,20.6 L15.703375,20.6 C14.9584,21.87925 13.5867,22.75 12,22.75 Z M18.41345,17.375 L5.587625,17.375 C6.899125,16.29785 7.7,14.67245 7.7,12.90085 L7.7,9.85 C7.7,7.47855 9.62855,5.55 12,5.55 C14.37145,5.55 16.3,7.47855 16.3,9.85 L16.3,12.90085 C16.3,14.67245 17.100875,16.29785 18.41345,17.375 Z"/></svg>