<svg xmlns="http://www.w3.org/2000/svg" width="24" height="24" viewBox="0 0 24 24"><path fill-rule="evenodd" d="M20.0015,12 L12.0015,12 C11.4495,12 11.0015,11.552 11.0015,11 L11.0015,3 C11.0015,2.448 11.4495,2 12.0015,2 C16.9635,2 21.0015,6.038 21.0015,11 C21.0015,11.552 20.5535,12 20.0015,12 Z M18.9305,10 C18.4905,6.938 16.0635,4.511 13.0015,4.071 L13.0015,10 L18.9305,10 Z M22.7065,13.293 C22.5195,13.106 22.2645,13 21.9995,13 L14.0005,13 C13.5965,13 13.2305,13.244 13.0765,13.617 C12.9225,13.991 13.0075,14.421 13.2935,14.707 L18.9485,20.364 C19.1365,20.551 19.3905,20.656 19.6555,20.656 C19.9205,20.656 20.1755,20.551 20.3625,20.364 C22.0625,18.663 22.9995,16.403 22.9995,13.999 C22.9995,13.735 22.8945,13.48 22.7065,13.293 Z M16.4145,15 L19.6055,18.194 C20.3115,17.254 20.7645,16.162 20.9295,15 L16.4145,15 Z M10.0005,12.586 L10.0005,5.069 C10.0005,4.782 9.8775,4.509 9.6625,4.319 C9.4475,4.13 9.1645,4.041 8.8765,4.078 C4.3865,4.639 1.0005,8.475 1.0005,13 C1.0005,17.962 5.0375,22 10.0005,22 C12.1085,22 14.1605,21.254 15.7755,19.899 C15.9905,19.718 16.1195,19.456 16.1315,19.176 C16.1445,18.896 16.0375,18.623 15.8395,18.425 L10.0005,12.586 Z M3.0005,13 C3.0005,16.86 6.1415,20 10.0005,20 C11.2705,20 12.5125,19.652 13.5925,19.007 L8.2935,13.707 C8.1055,13.52 8.0005,13.266 8.0005,13 L8.0005,6.298 C5.0825,7.164 3.0005,9.87 3.0005,13 Z"/></svg>